<svg xmlns="http://www.w3.org/2000/svg" width="160" height="32" viewBox="0 0 160 32">
  <rect width="160" height="32" fill="#fff8e9"/>
  <g fill="none" stroke="#335247" stroke-width="2" stroke-linecap="round" stroke-linejoin="round">
    <g transform="translate(0 0)">
      <circle cx="16" cy="16" r="4" fill="#f4b0ba"/>
      <path d="M16 5c4 2 5 5 0 7-5-2-4-5 0-7zm11 11c-2 4-5 5-7 0 2-5 5-4 7 0zM16 27c-4-2-5-5 0-7 5 2 4 5 0 7zM5 16c2-4 5-5 7 0-2 5-5 4-7 0z" fill="#ef8497"/>
    </g>
    <g transform="translate(32 0)">
      <path d="M9 10h13v8a6 6 0 0 1-6 6h-1a6 6 0 0 1-6-6v-8z" fill="#b6e1d0"/>
      <path d="M22 12h2a4 4 0 0 1 0 8h-2M12 6c-2 2 2 3 0 5m6-5c-2 2 2 3 0 5"/>
    </g>
    <g transform="translate(64 0)">
      <path d="M7 14h18c0 7-4 11-9 11S7 21 7 14z" fill="#ffd395"/>
      <path d="M10 11h12M12 6l-2 7m10-7 2 7"/>
    </g>
    <g transform="translate(96 0)">
      <path d="M8 18c0-7 4-11 8-11s8 4 8 11c0 4-4 7-8 7s-8-3-8-7z" fill="#e9b86e"/>
      <path d="M11 14c2 2 8 2 10 0"/>
    </g>
    <g transform="translate(128 0)">
      <rect x="6" y="7" width="20" height="18" rx="2" fill="#d5ecdf"/>
      <path d="M6 12h20" stroke="#2f88c9"/><path d="M6 16h20" stroke="#ee8f43"/>
      <path d="M12 25v-6h8v6"/>
    </g>
  </g>
</svg>
